<svg width="29" height="31" viewBox="0 0 29 31" fill="none" xmlns="http://www.w3.org/2000/svg">
<g clip-path="url(#clip0_411_143)">
<path d="M14.5 30.4487C6.5042 30.4487 0 23.7777 0 15.5769C0 7.37605 6.5042 0.705078 14.5 0.705078C22.4958 0.705078 29 7.37605 29 15.5769C29 23.7777 22.4958 30.4487 14.5 30.4487ZM14.5 2.24261C7.33058 2.24261 1.4991 8.22362 1.4991 15.5769C1.4991 22.9301 7.33058 28.9111 14.5 28.9111C21.6694 28.9111 27.5009 22.9301 27.5009 15.5769C27.5009 8.22362 21.6694 2.24261 14.5 2.24261Z" fill="#DAFF00"/>
<path d="M8.99454 21.9211C10.2706 26.7317 17.9629 26.626 21.1766 21.654C25.1866 15.4519 20.5413 7.37603 16.8386 5.77315C16.5481 5.63285 16.2033 5.66744 16.3926 6.02108C20.4345 15.7671 6.96327 14.2584 8.99642 21.9192" fill="#DAFF00"/>
<path d="M7.36431 19.069C7.62103 19.2016 7.84402 19.021 7.90024 18.7692C8.30499 17.0087 10.2782 16.2361 11.0333 15.3559C11.4475 14.8735 11.1889 14.4929 10.7804 14.1508C9.05079 12.7036 9.65043 9.20766 9.92589 8.24862C10.0477 7.82388 9.69915 7.94111 9.41994 8.09487C7.02889 9.4306 4.9339 17.8102 7.36618 19.069" fill="#DAFF00"/>
</g>
<defs>
<clipPath id="clip0_411_143">
<rect width="29" height="29.7436" fill="white" transform="translate(0 0.705078)"/>
</clipPath>
</defs>
</svg>
