

<svg xmlns="http://www.w3.org/2000/svg" width="29" height="29" viewBox="0 0 29 29" fill="none">
<g clip-path="url(#clip0_179_86)">
<path d="M14.5 29C6.5042 29 0 22.4958 0 14.5C0 6.5042 6.5042 0 14.5 0C22.4958 0 29 6.5042 29 14.5C29 22.4958 22.4958 29 14.5 29ZM14.5 1.4991C7.33058 1.4991 1.4991 7.33058 1.4991 14.5C1.4991 21.6694 7.33058 27.5009 14.5 27.5009C21.6694 27.5009 27.5009 21.6694 27.5009 14.5C27.5009 7.33058 21.6694 1.4991 14.5 1.4991Z" fill="#DAFF00"/>
<path d="M8.99466 20.6856C10.2708 25.3759 17.963 25.2729 21.1767 20.4252C25.1868 14.3782 20.5414 6.5042 16.8387 4.94139C16.5482 4.8046 16.2034 4.83833 16.3927 5.18312C20.4346 14.6855 6.96339 13.2145 8.99654 20.6838" fill="#DAFF00"/>
<path d="M7.36443 17.9048C7.62115 18.0341 7.84414 17.858 7.90036 17.6125C8.30511 15.896 10.2783 15.1427 11.0335 14.2845C11.4476 13.8141 11.189 13.4431 10.7805 13.1096C9.05091 11.6985 9.65055 8.28998 9.92601 7.35492C10.0478 6.94079 9.69927 7.0551 9.42007 7.20501C7.02901 8.50735 4.93402 16.6774 7.36631 17.9048" fill="#DAFF00"/>
</g>
<defs>
<clipPath id="clip0_179_86">
<rect width="29" height="29" fill="white"/>
</clipPath>
</defs>
</svg>