<svg width="24" height="24" viewBox="0 0 24 24" fill="none" xmlns="http://www.w3.org/2000/svg">
<path d="M6.16145 16.3303C5.84505 16.6467 5.82998 17.2117 6.16899 17.5432C6.50046 17.8747 7.06547 17.8671 7.38188 17.5507L11.9924 12.9327L16.6104 17.5507C16.9343 17.8747 17.4918 17.8747 17.8233 17.5432C18.1472 17.2042 18.1548 16.6542 17.8233 16.3303L13.2128 11.7123L17.8233 7.10179C18.1548 6.77785 18.1548 6.22037 17.8233 5.8889C17.4843 5.56496 16.9343 5.55742 16.6104 5.88136L11.9924 10.4994L7.38188 5.88136C7.06547 5.56496 6.49293 5.54989 6.16899 5.8889C5.83752 6.22037 5.84505 6.78538 6.16145 7.10179L10.7795 11.7123L6.16145 16.3303Z" fill="#F3F3F3"/>
</svg>
