<svg xmlns="http://www.w3.org/2000/svg" width="29" height="29" viewBox="0 0 29 29" fill="none">
<g clip-path="url(#clip0_4_13)">
<path d="M14.5 29C6.5042 29 0 22.4958 0 14.5C0 6.5042 6.5042 0 14.5 0C22.4958 0 29 6.5042 29 14.5C29 22.4958 22.4958 29 14.5 29ZM14.5 1.4991C7.33058 1.4991 1.4991 7.33058 1.4991 14.5C1.4991 21.6694 7.33058 27.5009 14.5 27.5009C21.6694 27.5009 27.5009 21.6694 27.5009 14.5C27.5009 7.33058 21.6694 1.4991 14.5 1.4991Z" fill="#DAFF00"/>
<path d="M8.9946 20.6856C10.2707 25.3759 17.9629 25.2729 21.1766 20.4252C25.1867 14.3782 20.5414 6.5042 16.8386 4.94139C16.5482 4.8046 16.2034 4.83833 16.3926 5.18312C20.4346 14.6855 6.96333 13.2145 8.99648 20.6838" fill="#DAFF00"/>
<path d="M7.36431 17.9049C7.62103 18.0342 7.84402 17.8581 7.90024 17.6126C8.30499 15.8961 10.2782 15.1428 11.0333 14.2846C11.4475 13.8143 11.1889 13.4432 10.7804 13.1097C9.05079 11.6987 9.65043 8.2901 9.92589 7.35504C10.0477 6.94091 9.69915 7.05522 9.41994 7.20513C7.02889 8.50747 4.9339 16.6775 7.36618 17.9049" fill="#DAFF00"/>
</g>
<defs>
<clipPath id="clip0_4_13">
<rect width="29" height="29" fill="white"/>
</clipPath>
</defs>
</svg>