<svg xmlns="http://www.w3.org/2000/svg" width="29" height="30" viewBox="0 0 29 30" fill="none">
<g clip-path="url(#clip0_179_65)">
<path d="M14.5 29.8974C6.5042 29.8974 0 23.2264 0 15.0256C0 6.82478 6.5042 0.153809 14.5 0.153809C22.4958 0.153809 29 6.82478 29 15.0256C29 23.2264 22.4958 29.8974 14.5 29.8974ZM14.5 1.69134C7.33058 1.69134 1.4991 7.67235 1.4991 15.0256C1.4991 22.3789 7.33058 28.3599 14.5 28.3599C21.6694 28.3599 27.5009 22.3789 27.5009 15.0256C27.5009 7.67235 21.6694 1.69134 14.5 1.69134Z" fill="#112329"/>
<path d="M8.99466 21.3698C10.2708 26.1804 17.963 26.0747 21.1767 21.1027C25.1868 14.9007 20.5414 6.82476 16.8387 5.22188C16.5482 5.08158 16.2034 5.11618 16.3927 5.46981C20.4346 15.2159 6.96339 13.7071 8.99654 21.3679" fill="#112329"/>
<path d="M7.36443 18.5177C7.62115 18.6504 7.84414 18.4697 7.90036 18.2179C8.30511 16.4574 10.2783 15.6848 11.0335 14.8046C11.4476 14.3222 11.189 13.9417 10.7805 13.5996C9.05091 12.1524 9.65055 8.65639 9.92601 7.69735C10.0478 7.27261 9.69927 7.38984 9.42007 7.5436C7.02901 8.87933 4.93402 17.2589 7.36631 18.5177" fill="#112329"/>
</g>
<defs>
<clipPath id="clip0_179_65">
<rect width="29" height="29.7436" fill="white" transform="translate(0 0.153809)"/>
</clipPath>
</defs>
</svg>